<svg xmlns="http://www.w3.org/2000/svg" xmlns:xlink="http://www.w3.org/1999/xlink" width="1024" zoomAndPan="magnify" viewBox="0 0 768 352.49999" height="470" preserveAspectRatio="xMidYMid meet" version="1.0"><defs><clipPath id="id1"><path d="M 374.390625 9 L 573 9 L 573 137 L 374.390625 137 Z M 374.390625 9 " clip-rule="nonzero"/></clipPath><clipPath id="id2"><path d="M 8.578125 79 L 509.617188 79 L 509.617188 252 L 8.578125 252 Z M 8.578125 79 " clip-rule="nonzero"/></clipPath><clipPath id="id3"><path d="M 518.507812 85.078125 L 618.117188 85.078125 L 618.117188 184.6875 L 518.507812 184.6875 Z M 518.507812 85.078125 " clip-rule="nonzero"/></clipPath></defs><path fill="#9ec7eb" d="M 565.757812 199.671875 L 688.804688 131.804688 L 685.324219 269.660156 L 562.265625 337.511719 Z M 565.757812 199.671875 " fill-opacity="1" fill-rule="nonzero"/><path fill="#2d4978" d="M 562.265625 342.09375 C 561.445312 342.09375 560.621094 341.871094 559.886719 341.429688 C 558.480469 340.578125 557.648438 339.035156 557.683594 337.394531 L 561.175781 199.554688 C 561.195312 198.742188 561.417969 197.984375 561.839844 197.289062 C 562.265625 196.59375 562.832031 196.050781 563.546875 195.65625 L 686.59375 127.789062 C 688.027344 126.992188 689.78125 127.039062 691.1875 127.886719 C 692.59375 128.738281 693.425781 130.277344 693.390625 131.921875 L 689.90625 269.777344 C 689.886719 270.59375 689.664062 271.347656 689.242188 272.042969 C 688.816406 272.738281 688.25 273.285156 687.535156 273.675781 L 564.480469 341.527344 C 563.789062 341.90625 563.054688 342.09375 562.265625 342.09375 Z M 570.269531 202.417969 L 567.046875 329.636719 L 680.808594 266.917969 L 684.023438 139.679688 Z M 570.269531 202.417969 " fill-opacity="1" fill-rule="nonzero"/><path fill="#ffffff" d="M 447.339844 127.703125 L 570.378906 59.835938 L 688.804688 131.804688 L 565.757812 199.671875 Z M 447.339844 127.703125 " fill-opacity="1" fill-rule="nonzero"/><path fill="#2d4978" d="M 565.757812 204.253906 C 564.933594 204.253906 564.109375 204.03125 563.378906 203.589844 L 444.957031 131.621094 C 444.257812 131.195312 443.714844 130.625 443.320312 129.90625 C 442.925781 129.191406 442.738281 128.421875 442.757812 127.605469 C 442.773438 126.789062 442.996094 126.027344 443.417969 125.328125 C 443.84375 124.628906 444.414062 124.082031 445.128906 123.6875 L 568.167969 55.820312 C 569.601562 55.023438 571.347656 55.0625 572.761719 55.917969 L 691.1875 127.886719 C 691.886719 128.3125 692.433594 128.882812 692.828125 129.601562 C 693.21875 130.316406 693.410156 131.085938 693.390625 131.902344 C 693.371094 132.71875 693.152344 133.480469 692.726562 134.179688 C 692.304688 134.878906 691.734375 135.425781 691.019531 135.820312 L 567.96875 203.6875 C 567.28125 204.066406 566.542969 204.257812 565.757812 204.253906 Z M 456.480469 127.894531 L 565.867188 194.375 L 679.664062 131.613281 L 570.269531 65.132812 Z M 456.480469 127.894531 " fill-opacity="1" fill-rule="nonzero"/><path fill="#9ec7eb" d="M 565.757812 199.671875 L 562.265625 337.511719 L 443.847656 265.542969 L 447.339844 127.703125 Z M 565.757812 199.671875 " fill-opacity="1" fill-rule="nonzero"/><path fill="#2d4978" d="M 562.265625 342.09375 C 561.445312 342.09375 560.621094 341.871094 559.886719 341.429688 L 441.464844 269.460938 C 440.0625 268.609375 439.226562 267.070312 439.265625 265.425781 L 442.757812 127.585938 C 442.777344 126.769531 443 126.011719 443.429688 125.3125 C 443.855469 124.617188 444.429688 124.070312 445.148438 123.679688 C 445.867188 123.292969 446.632812 123.109375 447.449219 123.128906 C 448.265625 123.144531 449.023438 123.367188 449.722656 123.785156 L 568.140625 195.753906 C 569.546875 196.605469 570.378906 198.144531 570.34375 199.789062 L 566.851562 337.625 C 566.84375 337.921875 566.808594 338.214844 566.742188 338.503906 C 566.679688 338.792969 566.585938 339.074219 566.46875 339.34375 C 566.351562 339.617188 566.207031 339.875 566.039062 340.117188 C 565.871094 340.359375 565.679688 340.585938 565.46875 340.792969 C 565.253906 341 565.023438 341.183594 564.777344 341.347656 C 564.53125 341.507812 564.269531 341.644531 563.992188 341.757812 C 563.71875 341.867188 563.4375 341.953125 563.148438 342.007812 C 562.855469 342.066406 562.5625 342.09375 562.265625 342.09375 Z M 448.496094 263.003906 L 557.890625 329.484375 L 561.113281 202.210938 L 451.71875 135.730469 Z M 448.496094 263.003906 " fill-opacity="1" fill-rule="nonzero"/><path fill="#ffffff" d="M 631.082031 247.796875 L 565.757812 200.808594 L 687.238281 129.753906 L 754.855469 174.449219 Z M 631.082031 247.796875 " fill-opacity="1" fill-rule="nonzero"/><path fill="#2d4978" d="M 631.082031 252.382812 C 630.144531 252.382812 629.203125 252.089844 628.40625 251.515625 L 563.082031 204.53125 C 562.449219 204.078125 561.964844 203.503906 561.628906 202.804688 C 561.292969 202.105469 561.144531 201.367188 561.183594 200.59375 C 561.21875 199.820312 561.4375 199.097656 561.839844 198.433594 C 562.242188 197.769531 562.777344 197.242188 563.449219 196.851562 L 684.929688 125.796875 C 686.425781 124.910156 688.3125 124.964844 689.765625 125.929688 L 757.382812 170.625 C 758.039062 171.0625 758.550781 171.628906 758.917969 172.328125 C 759.285156 173.027344 759.457031 173.773438 759.441406 174.5625 C 759.421875 175.351562 759.214844 176.085938 758.8125 176.769531 C 758.414062 177.449219 757.875 177.992188 757.195312 178.394531 L 633.421875 251.742188 C 632.699219 252.167969 631.921875 252.382812 631.082031 252.378906 Z M 574.15625 201.207031 L 631.324219 242.324219 L 746.226562 174.238281 L 687.085938 135.152344 Z M 574.15625 201.207031 " fill-opacity="1" fill-rule="nonzero"/><path fill="#ffffff" d="M 444.296875 131.804688 L 378.972656 84.816406 L 500.453125 13.761719 L 568.070312 58.457031 Z M 444.296875 131.804688 " fill-opacity="1" fill-rule="nonzero"/><g clip-path="url(#id1)"><path fill="#2d4978" d="M 444.296875 136.390625 C 443.355469 136.390625 442.414062 136.097656 441.617188 135.523438 L 376.292969 88.535156 C 375.664062 88.085938 375.179688 87.511719 374.84375 86.8125 C 374.503906 86.113281 374.355469 85.375 374.398438 84.601562 C 374.433594 83.828125 374.652344 83.105469 375.054688 82.441406 C 375.453125 81.777344 375.992188 81.25 376.660156 80.859375 L 498.144531 9.804688 C 499.628906 8.917969 501.527344 8.976562 502.976562 9.9375 L 570.59375 54.632812 C 571.253906 55.070312 571.765625 55.636719 572.132812 56.335938 C 572.496094 57.035156 572.671875 57.78125 572.652344 58.570312 C 572.636719 59.359375 572.425781 60.09375 572.027344 60.777344 C 571.625 61.457031 571.085938 62 570.40625 62.402344 L 446.632812 135.75 C 445.914062 136.175781 445.132812 136.390625 444.296875 136.390625 Z M 387.371094 85.214844 L 444.539062 126.335938 L 559.4375 58.246094 L 500.300781 19.160156 Z M 387.371094 85.214844 " fill-opacity="1" fill-rule="nonzero"/></g><path fill="#ffffff" d="M 446.410156 129.753906 L 563.304688 201.570312 L 501.417969 245.121094 L 383.753906 173.902344 Z M 446.410156 129.753906 " fill-opacity="1" fill-rule="nonzero"/><path fill="#2d4978" d="M 501.417969 249.703125 C 500.59375 249.703125 499.78125 249.484375 499.046875 249.042969 L 381.378906 177.824219 C 380.71875 177.425781 380.191406 176.890625 379.796875 176.226562 C 379.40625 175.558594 379.195312 174.835938 379.167969 174.066406 C 379.140625 173.292969 379.300781 172.558594 379.644531 171.863281 C 379.992188 171.171875 380.480469 170.601562 381.113281 170.15625 L 443.769531 126.007812 C 444.132812 125.75 444.53125 125.546875 444.953125 125.40625 C 445.378906 125.261719 445.816406 125.183594 446.265625 125.167969 C 446.710938 125.15625 447.152344 125.207031 447.585938 125.320312 C 448.019531 125.4375 448.425781 125.609375 448.808594 125.847656 L 565.703125 197.660156 C 566.363281 198.066406 566.882812 198.601562 567.269531 199.269531 C 567.65625 199.9375 567.863281 200.65625 567.890625 201.425781 C 567.914062 202.199219 567.753906 202.925781 567.410156 203.617188 C 567.0625 204.304688 566.578125 204.871094 565.945312 205.316406 L 504.058594 248.867188 C 503.269531 249.425781 502.386719 249.703125 501.417969 249.703125 Z M 392.125 173.613281 L 501.230469 239.648438 L 554.96875 201.828125 L 446.578125 135.242188 Z M 392.125 173.613281 " fill-opacity="1" fill-rule="nonzero"/><path fill="#ffffff" d="M 633.195312 13.761719 L 750.09375 85.578125 L 688.207031 129.128906 L 570.539062 57.910156 Z M 633.195312 13.761719 " fill-opacity="1" fill-rule="nonzero"/><path fill="#2d4978" d="M 688.207031 133.710938 C 687.355469 133.710938 686.5625 133.492188 685.832031 133.050781 L 568.167969 61.832031 C 567.503906 61.433594 566.976562 60.898438 566.585938 60.234375 C 566.191406 59.566406 565.984375 58.847656 565.957031 58.074219 C 565.929688 57.300781 566.089844 56.566406 566.433594 55.871094 C 566.777344 55.179688 567.265625 54.609375 567.898438 54.164062 L 630.554688 10.015625 C 632.058594 8.953125 634.054688 8.894531 635.597656 9.855469 L 752.492188 81.667969 C 753.148438 82.074219 753.671875 82.609375 754.058594 83.277344 C 754.445312 83.945312 754.652344 84.664062 754.675781 85.433594 C 754.699219 86.203125 754.539062 86.933594 754.195312 87.625 C 753.851562 88.3125 753.363281 88.882812 752.734375 89.324219 L 690.847656 132.875 C 690.054688 133.433594 689.175781 133.710938 688.207031 133.710938 Z M 578.910156 57.621094 L 688.019531 123.65625 L 741.757812 85.835938 L 633.367188 19.25 Z M 578.910156 57.621094 " fill-opacity="1" fill-rule="nonzero"/><g clip-path="url(#id2)"><path fill="#000000" d="M 227.113281 79.1875 L 227.113281 118.921875 L 94.671875 118.921875 C 69.109375 118.921875 48.308594 139.722656 48.308594 165.277344 C 48.308594 190.839844 69.109375 211.640625 94.671875 211.640625 L 162.210938 211.640625 L 162.210938 251.371094 L 94.671875 251.371094 C 47.199219 251.371094 8.578125 212.746094 8.578125 165.277344 C 8.578125 117.8125 47.199219 79.1875 94.671875 79.1875 Z M 407.25 79.1875 C 454.726562 79.1875 493.339844 117.8125 493.339844 165.277344 C 493.339844 212.75 454.722656 251.371094 407.25 251.371094 L 341.03125 251.371094 C 293.558594 251.371094 254.945312 212.746094 254.945312 165.277344 C 254.945312 117.8125 293.558594 79.1875 341.03125 79.1875 Z M 195.320312 146.078125 C 213.578125 146.078125 228.433594 160.929688 228.433594 179.1875 L 228.433594 251.152344 L 188.699219 251.152344 L 188.699219 185.808594 L 94.671875 185.808594 L 94.671875 146.078125 Z M 407.253906 118.921875 L 341.03125 118.921875 C 315.46875 118.921875 294.679688 139.71875 294.679688 165.277344 C 294.679688 190.839844 315.46875 211.636719 341.03125 211.636719 L 407.253906 211.636719 C 432.816406 211.636719 453.609375 190.839844 453.609375 165.277344 C 453.609375 139.722656 432.816406 118.921875 407.253906 118.921875 Z M 583.152344 79.652344 L 583.292969 114.453125 L 618.089844 114.308594 L 618.210938 144.128906 L 583.410156 144.273438 L 583.554688 179.070312 L 553.726562 179.191406 L 553.589844 144.394531 L 518.792969 144.535156 L 518.671875 114.710938 L 553.460938 114.570312 L 553.324219 79.773438 Z M 583.152344 79.652344 " fill-opacity="1" fill-rule="nonzero"/></g><g clip-path="url(#id3)"><path fill="#000000" d="M 227.113281 84.558594 L 227.113281 124.292969 L 94.671875 124.292969 C 69.109375 124.292969 48.308594 145.09375 48.308594 170.648438 C 48.308594 196.210938 69.109375 217.011719 94.671875 217.011719 L 162.210938 217.011719 L 162.210938 256.742188 L 94.671875 256.742188 C 47.199219 256.742188 8.578125 218.117188 8.578125 170.648438 C 8.578125 123.183594 47.199219 84.558594 94.671875 84.558594 Z M 407.25 84.558594 C 454.726562 84.558594 493.339844 123.183594 493.339844 170.648438 C 493.339844 218.121094 454.722656 256.742188 407.25 256.742188 L 341.03125 256.742188 C 293.558594 256.742188 254.945312 218.117188 254.945312 170.648438 C 254.945312 123.183594 293.558594 84.558594 341.03125 84.558594 Z M 195.320312 151.449219 C 213.578125 151.449219 228.433594 166.300781 228.433594 184.558594 L 228.433594 256.523438 L 188.699219 256.523438 L 188.699219 191.179688 L 94.671875 191.179688 L 94.671875 151.449219 Z M 407.253906 124.292969 L 341.03125 124.292969 C 315.46875 124.292969 294.679688 145.089844 294.679688 170.648438 C 294.679688 196.210938 315.46875 217.007812 341.03125 217.007812 L 407.253906 217.007812 C 432.816406 217.007812 453.609375 196.210938 453.609375 170.648438 C 453.609375 145.09375 432.816406 124.292969 407.253906 124.292969 Z M 583.152344 85.023438 L 583.292969 119.824219 L 618.089844 119.679688 L 618.210938 149.5 L 583.410156 149.644531 L 583.554688 184.441406 L 553.726562 184.5625 L 553.589844 149.765625 L 518.792969 149.90625 L 518.671875 120.082031 L 553.460938 119.941406 L 553.324219 85.144531 Z M 583.152344 85.023438 " fill-opacity="1" fill-rule="nonzero"/></g></svg>